<svg xmlns="http://www.w3.org/2000/svg" xmlns:svgjs="http://svgjs.com/svgjs" xmlns:xlink="http://www.w3.org/1999/xlink" width="288" height="288">
	<svg xmlns="http://www.w3.org/2000/svg" width="288" height="288" class="navigation__link__icon" viewBox="0 0 128.01 20.01">
		<path fill="currentColor" d="m48.67 16.19c-1.11 0.04-2.22-0.14-3.26-0.53-0.74-0.33-1.55-0.52-2.36-0.55l-1.25-0.06c-0.26 0-0.5-0.13-0.65-0.34-0.4-0.61-0.02-1.83 0.4-2.95 0.26-0.68-0.66-1.22-1.7-1.75-1.11-0.57-1.08-0.79-0.48-2.64 0.26-1.23 1.17-2.22 2.38-2.58l0.13-0.06c0.7-0.4 1.18-1.1 1.29-1.9 0.04-0.13 0.07-0.25 0.11-0.35 0.18-0.49 0.98-0.96 1.82-1.4l0.11-0.06c0.48-0.25 3.25-0.5 3.86 0.46 0.41 0.56 0.95 1.01 1.58 1.31 0.18 0.1 0.35 0.2 0.49 0.3 1.3 0.99 2.22 2.41 2.58 4.01 0.22 1.7 0.2 2.56-0.45 3.12-0.54 0.4-0.91 1-1.03 1.66 0.01 0.58-0.16 1.14-0.49 1.62-0.35 0.46-0.64 0.97-0.87 1.51-0.28 0.65-0.88 1.09-1.58 1.16-0.21 0.02-0.42 0.03-0.63 0.02zm-5.61-1.39c0.86 0.03 1.71 0.23 2.49 0.59 1.19 0.4 2.45 0.56 3.7 0.47 0.59-0.05 1.1-0.42 1.34-0.97 0.23-0.56 0.53-1.09 0.9-1.57 0.29-0.43 0.44-0.94 0.43-1.46 0.12-0.75 0.52-1.43 1.14-1.88 0.5-0.43 0.58-1.04 0.35-2.85-0.35-1.51-1.21-2.85-2.44-3.79-0.14-0.09-0.3-0.19-0.47-0.29-0.67-0.32-1.25-0.81-1.68-1.41-0.48-0.77-3.05-0.56-3.45-0.35l-0.11 0.06c-0.45 0.24-1.51 0.78-1.67 1.23-0.03 0.09-0.06 0.2-0.1 0.33-0.14 0.89-0.68 1.66-1.47 2.1l-0.14 0.06c-1.12 0.32-1.97 1.24-2.21 2.39-0.59 1.8-0.58 1.81 0.32 2.27 0.88 0.45 2.22 1.14 1.84 2.13-0.22 0.58-0.8 2.11-0.43 2.67 0.09 0.13 0.25 0.21 0.41 0.2l1.25 0.07zm2.62 5.2c-0.72 0.09-1.43-0.26-1.81-0.88-0.03-0.04-0.05-0.08-0.07-0.11l-0.11-0.14c-0.43-0.53-0.88-1.04-1.37-1.52-0.26-0.3-0.42-0.68-0.45-1.08-0.02-0.14-0.06-0.27-0.11-0.4-0.03-0.05-0.1-0.15-0.2-0.3-0.53-0.72-0.97-1.5-1.31-2.33-0.09-0.64-0.05-1.3 0.13-1.93 0.07-0.28 0.11-0.56 0.12-0.84-0.12-0.54-0.32-1.07-0.59-1.55-0.45-0.6-0.51-1.41-0.15-2.07 0.57-1.3 0.88-1.99 1.27-2.23 0.35-0.22 1.49-0.81 1.53-0.83l0.02-0.01c0.39-0.16 0.7-0.46 0.88-0.85 0.06-0.1 0.13-0.21 0.2-0.31s0.13-0.21 0.19-0.32c0.15-0.28 0.23-0.4 0.87-0.7 0.98-0.24 2-0.23 2.96 0.05 0.19 0.04 0.38 0.07 0.57 0.09 0.94 0.21 1.85 0.52 2.71 0.93l0.23 0.09c0.75 0.38 1.43 0.87 2.03 1.45 0.29 0.29 0.64 0.52 1.03 0.66 0.17 0.08 0.35 0.16 0.52 0.26 0.57 0.33 1.21 0.87 1.29 1.38 0.02 0.09 0.04 0.19 0.06 0.29 0.14 0.69 0.22 1.4 0.26 2.11 0.15 0.99 0.01 2-0.42 2.9-0.32 0.6-0.55 1.25-0.68 1.91-0.26 0.95-0.81 1.8-1.57 2.43-0.52 0.63-1.22 1.1-2 1.35-0.1 0.03-0.2 0.07-0.32 0.11-0.15 0.06-0.28 0.09-0.38 0.13-0.43 0.14-0.59 0.18-1.56 1.13-0.87 0.85-1.01 0.89-1.73 0.92-0.42 0.02-0.85 0.06-1.27 0.12-0.25 0.06-0.51 0.08-0.77 0.09zm-2.99-15.93c-0.11 0.06-1.18 0.61-1.5 0.82-0.52 0.61-0.92 1.32-1.15 2.09-0.3 0.55-0.27 1.23 0.09 1.74 0.32 0.53 0.55 1.12 0.67 1.73-0.01 0.31-0.05 0.62-0.13 0.92-0.17 0.58-0.21 1.19-0.13 1.79 0.33 0.79 0.75 1.54 1.26 2.24 0.1 0.15 0.18 0.26 0.21 0.32 0.07 0.16 0.12 0.32 0.14 0.49 0.03 0.33 0.15 0.64 0.34 0.9 0.51 0.49 0.98 1.01 1.42 1.57l0.11 0.14c0.04 0.04 0.07 0.09 0.1 0.14 0.21 0.33 0.61 0.94 2.27 0.68 0.43-0.07 0.86-0.11 1.3-0.13 0.65-0.03 0.72-0.04 1.54-0.83 1.01-1 1.21-1.06 1.68-1.21 0.1-0.03 0.22-0.07 0.37-0.12 0.12-0.04 0.22-0.08 0.32-0.11 0.74-0.24 1.39-0.69 1.88-1.29 0.72-0.59 1.24-1.39 1.49-2.28 0.14-0.7 0.38-1.37 0.71-1.99 0.4-0.85 0.54-1.81 0.39-2.74-0.03-0.69-0.12-1.39-0.25-2.07-0.02-0.11-0.04-0.21-0.06-0.3-0.06-0.38-0.62-0.86-1.14-1.16-0.15-0.09-0.32-0.16-0.49-0.24-0.43-0.16-0.81-0.41-1.13-0.74-0.57-0.55-1.21-1.01-1.91-1.37l-0.23-0.09c-0.83-0.38-1.7-0.68-2.59-0.9-0.22-0.02-0.43-0.05-0.64-0.09-0.91-0.26-1.86-0.28-2.78-0.07-0.57 0.27-0.61 0.34-0.73 0.56-0.06 0.12-0.13 0.24-0.21 0.35-0.06 0.09-0.12 0.18-0.18 0.28-0.21 0.44-0.58 0.79-1.04 0.97zm4.26 10.54c-0.36-0.01-0.72-0.08-1.07-0.2l-0.17-0.05c-1.03-0.48-1.98-1.12-2.81-1.89-0.21-0.21-0.37-0.47-0.46-0.75-0.19-0.52-0.5-0.99-0.92-1.36-1-1.02-1.11-1.42-1.2-1.71-0.02-0.06-0.03-0.11-0.06-0.16-0.06-0.16-0.04-0.34 0.03-0.49 0.36-0.68 0.97-1.2 1.71-1.45 0.7-0.29 1.12-1 1.02-1.75l-0.02-0.12 0.03-0.01c0.01-0.11 0.03-0.36 0.08-0.92 0.08-1.01 0.93-1.55 2.6-1.65 1.51-0.09 2.15 0.05 2.71 0.61 0.47 0.51 1.02 0.93 1.64 1.25 0.2 0.09 0.47 0.18 0.75 0.27 0.52 0.13 1.02 0.35 1.47 0.63 0.59 0.46 0.54 1.18 0.4 2.53l-0.03 0.25c0.01 0.56-0.1 1.11-0.3 1.62-0.12 0.22-0.27 0.42-0.44 0.59-0.49 0.55-0.9 1.18-1.2 1.86-0.12 0.38-0.32 0.72-0.58 1.02l-0.03 0.03c-0.1 0.09-0.21 0.17-0.33 0.24-0.48 0.32-0.93 0.67-1.36 1.05-0.38 0.37-0.91 0.57-1.46 0.56zm-3.61-9.86c0.1 0.88-0.39 1.73-1.21 2.07-0.66 0.22-1.21 0.67-1.54 1.28-0.04 0.08-0.05 0.17-0.04 0.26 0.03 0.07 0.05 0.13 0.07 0.2 0.08 0.26 0.18 0.61 1.13 1.58 0.44 0.4 0.78 0.91 0.98 1.47 0.07 0.24 0.2 0.47 0.39 0.64 0.79 0.74 1.69 1.35 2.67 1.81 0.06 0.01 0.11 0.03 0.18 0.05 0.75 0.34 1.62 0.22 2.25-0.31 0.44-0.38 0.91-0.74 1.39-1.07 0.1-0.06 0.19-0.13 0.28-0.21l0.04-0.03c0.1-0.1 0.19-0.18 0.52-0.92 0.32-0.7 0.74-1.35 1.26-1.93 0.15-0.16 0.28-0.33 0.39-0.52 0.19-0.49 0.28-1.01 0.27-1.53l0.03-0.25c0.14-1.37 0.16-1.92-0.29-2.26-0.43-0.26-0.89-0.46-1.38-0.58-0.27-0.08-0.53-0.17-0.79-0.28-0.65-0.33-1.23-0.78-1.73-1.31-0.49-0.49-1.07-0.61-2.48-0.53-1.51 0.09-2.24 0.53-2.31 1.37-0.03 0.58-0.06 0.86-0.08 1zm4.35 13.75c-0.23 0.02-0.46-0.04-0.65-0.16-0.25-0.22-0.49-0.46-0.71-0.72-0.55-0.61-1.31-1.44-1.87-1.39-0.7-0.02-1.36-0.31-1.84-0.81-0.6-0.54-0.93-1.32-0.9-2.12 0.02-0.93-0.55-1.78-1.43-2.1-0.07-0.03-0.14-0.07-0.2-0.11-0.04-0.03-0.09-0.05-0.13-0.08-0.71-0.3-1.18-0.99-1.2-1.76 0-1.16 0-3.56 1.38-3.89 0.17-0.04 0.35-0.08 0.52-0.12 0.96-0.22 1.87-0.42 2.13-0.79 0.07-0.1 0.12-0.2 0.17-0.31 0.18-0.37 0.36-0.75 1.46-1.01l1.31-0.31c0.49-0.4 0.85-0.93 1.06-1.53 0.4-1.14 1.06-1.27 1.51-1.27 0.04 0 0.12 0 0.22-0.01 1.37-0.05 2.99-0.04 3.36 0.53 0.16 0.27 0.3 0.55 0.43 0.83 0.36 0.76 0.8 1.72 1.39 2 1.02 0.57 1.86 1.42 2.41 2.44 0.06 0.14 0.14 0.28 0.23 0.43 0.61 0.82 0.75 1.91 0.37 2.86-0.33 1.01-0.94 1.9-1.78 2.56-0.49 0.45-0.75 1.11-0.69 1.78 0.01 0.15-0.01 0.31-0.04 0.46-0.02 0.07-0.03 0.13-0.04 0.2-0.06 0.47-0.17 1.25-1.79 2.45-1.35 1.06-2.97 1.72-4.68 1.95zm-3.17-2.58c0.69 0 1.44 0.83 2.04 1.49 0.21 0.24 0.43 0.47 0.67 0.68 0.53 0.41 3.14-0.41 4.98-1.77 1.52-1.12 1.61-1.8 1.67-2.24 0.01-0.08 0.02-0.16 0.04-0.24 0.02-0.13 0.03-0.25 0.03-0.38-0.06-0.75 0.23-1.49 0.79-2 0.8-0.63 1.39-1.49 1.7-2.46 0.34-0.86 0.21-1.85-0.36-2.59-0.09-0.16-0.18-0.31-0.24-0.45-0.53-0.96-1.31-1.76-2.27-2.3-0.72-0.54-1.25-1.29-1.54-2.14-0.12-0.27-0.25-0.54-0.4-0.8-0.22-0.33-1.26-0.47-3.09-0.39-0.11 0-0.19 0.01-0.23 0.01-0.25 0-0.85 0-1.23 1.07-0.23 0.67-0.64 1.26-1.2 1.7l-0.05 0.02-1.34 0.31c-0.96 0.22-1.08 0.5-1.25 0.84-0.06 0.12-0.12 0.24-0.2 0.36-0.34 0.46-1.26 0.66-2.32 0.9l-0.52 0.12c-1.14 0.27-1.14 2.59-1.14 3.59 0.02 0.66 0.43 1.24 1.04 1.49 0.07 0.03 0.13 0.07 0.19 0.11 0.04 0.03 0.09 0.05 0.14 0.07 0.99 0.38 1.63 1.34 1.6 2.39-0.02 0.72 0.28 1.4 0.81 1.88 0.42 0.44 0.99 0.7 1.6 0.72 0.02 0.01 0.05 0.01 0.08 0.01zm1.13 2.6c-0.17-0.01-0.33-0.04-0.49-0.09-0.44-0.12-0.9-0.2-1.36-0.24-0.87-0.04-1.65-0.55-2.04-1.32v-0.01l-0.4-1.1c-0.49-0.63-0.71-1.43-0.6-2.22v-0.08c0.15-0.7-0.1-1.42-0.64-1.88-0.94-1.09-0.94-2.06 0.01-2.95 0.41-0.33 0.67-0.8 0.74-1.32 0-0.22 0.1-0.43 0.27-0.57 0.42-0.45 0.78-0.96 1.08-1.51 0.14-2.11 0.29-2.42 0.38-2.48 2.79-2.68 5.47-1.62 5.5-1.61 0.68 0.41 1.32 0.89 1.92 1.42 0.18 0.13 0.38 0.22 0.6 0.26 0.5 0.11 0.97 0.36 1.32 0.73 0.62 0.67 1.39 0.53 2.66 0.29l0.11-0.02c1.36-0.25 1.81 1.1 2.2 2.29 0.05 0.14 0.09 0.28 0.14 0.41 0.37 1.07-0.2 1.53-0.81 2.03-0.23 0.18-0.45 0.37-0.65 0.58-0.42 0.48-0.56 1.15-0.35 1.75 0.05 0.24 0.07 0.47 0.08 0.71 0.01 0.27-0.04 0.53-0.15 0.77-0.13 0.31-0.2 0.64-0.19 0.98-0.05 1.12-0.29 1.38-0.54 1.65l-0.07 0.07c-0.29 0.23-0.61 0.41-0.96 0.54-0.37 0.16-0.73 0.35-1.07 0.56-0.62 0.38-1.29 0.67-1.99 0.86l-0.22 0.07c-0.16 0.06-0.31 0.13-0.45 0.22-0.43 0.27-0.93 0.42-1.44 0.42-0.6 0.05-1.17 0.22-1.7 0.5-0.2 0.11-0.42 0.19-0.64 0.25-0.07 0.03-0.16 0.04-0.25 0.04zm-3.6-1.76c0.35 0.67 1.03 1.1 1.78 1.13 0.48 0.04 0.95 0.12 1.41 0.25 0.19 0.07 0.4 0.09 0.6 0.06 0.2-0.05 0.39-0.13 0.58-0.23 0.56-0.3 1.18-0.48 1.82-0.53 0.46 0.01 0.91-0.13 1.3-0.38 0.16-0.1 0.33-0.19 0.51-0.25l0.22-0.07c0.67-0.19 1.31-0.47 1.91-0.82 0.35-0.23 0.73-0.42 1.11-0.59 0.31-0.12 0.59-0.28 0.86-0.47l0.07-0.08c0.22-0.24 0.41-0.44 0.46-1.46 0-0.37 0.07-0.74 0.22-1.08 0.1-0.2 0.14-0.43 0.12-0.65-0.01-0.22-0.03-0.44-0.08-0.66-0.22-0.7-0.06-1.47 0.43-2.01 0.21-0.22 0.44-0.42 0.68-0.61 0.61-0.49 1.01-0.82 0.71-1.69-0.05-0.14-0.09-0.28-0.14-0.42-0.39-1.18-0.76-2.29-1.86-2.08l-0.11 0.02c-1.32 0.25-2.2 0.41-2.94-0.38-0.32-0.33-0.73-0.55-1.18-0.64-0.26-0.05-0.51-0.17-0.72-0.33-0.57-0.5-1.18-0.96-1.83-1.36-0.03-0.01-2.57-0.94-5.18 1.56-0.2 0.75-0.29 1.53-0.29 2.31l-0.02 0.07c-0.3 0.59-0.7 1.14-1.16 1.63-0.1 0.07-0.12 0.17-0.15 0.37-0.07 0.59-0.37 1.13-0.83 1.5-0.83 0.78-0.83 1.56 0.01 2.53 0.59 0.52 0.86 1.32 0.71 2.09v0.08c-0.11 0.74 0.1 1.5 0.57 2.08l0.41 1.11zm78.31-14.12h0.06l3.52 9.47h-7.15l3.57-9.47zm6.24 16.59h1.41l-6.93-18.54h-0.91l-7.12 18.54h1.04l2.38-6.27h7.79l2.34 6.27zm-38.22 0v-17.37h0.05l6.35 17.33h1.01l6.41-17.31h0.05v17.33h1.34v-18.39h-1.87l-6.16 16.46h-0.03l-6.11-16.46h-1.97v18.41h0.93zm-21.26-18.41v18.41h10.83v-0.85h-9.49v-8.33h6.43v-0.85h-6.43v-7.52h8.72v-0.86h-10.06zm-45.7 0h-1.33v18.41h10.94v-0.85h-9.61v-17.56zm-21.42 0v18.41h1.34v-9.05h6.4v-0.85h-6.4v-7.65h9.34v-0.86h-10.68z" class="colorcurrentColor svgShape" />
	</svg>
</svg>
